<?xml version="1.0" encoding="utf-8"?>
<!-- Generator: Adobe Illustrator 24.0.3, SVG Export Plug-In . SVG Version: 6.00 Build 0)  -->
<svg version="1.1" id="Layer_1" xmlns="http://www.w3.org/2000/svg" xmlns:xlink="http://www.w3.org/1999/xlink" x="0px" y="0px"
	 viewBox="0 0 24 24" style="enable-background:new 0 0 24 24;" xml:space="preserve">
<style type="text/css">
	.st0{fill:#231F20;}
</style>
<title>AD/icon/Call</title>
<path class="st0" d="M21.8,16.3l-2-2l-0.1-0.1c-0.8-0.7-2-0.6-2.7,0.1l-1.5,1.5c0,0,0,0-0.1,0l-0.1,0c0,0-0.1,0-0.1,0L15,15.6
	c-0.1-0.1-0.3-0.1-0.5-0.2c-0.8-0.4-1.8-1.2-2.7-2.1c0,0,0,0,0,0c-0.9-0.9-1.7-1.9-2.1-2.7c-0.1-0.2-0.2-0.4-0.2-0.5L9.3,9.8
	c0-0.1,0-0.1,0-0.2l0-0.1c0,0,0-0.1,0-0.1L10.7,8l0.1-0.1c0.7-0.8,0.6-2-0.1-2.7l-2-2L8.6,3.1c-0.8-0.7-2-0.6-2.7,0.1L4.1,5L4,5.1
	c0,0,0,0,0,0C2.6,6.6,3.5,9.9,6,13.2l0.4,0.5c0.7,0.9,1.4,1.7,2.3,2.6c0,0,0,0,0,0c0,0,0,0,0,0c0,0,0,0,0,0c0,0,0,0,0,0
	c0.8,0.8,1.7,1.6,2.6,2.3l0.5,0.4c0.2,0.2,0.5,0.3,0.7,0.5l0.5,0.3c3,1.8,5.7,2.4,7,1.1l1.8-1.8l0.1-0.1
	C22.6,18.2,22.5,17,21.8,16.3z M20.9,18.2L19.1,20c-1.2,1.2-5.6-0.7-9.5-4.5c-1.7-1.8-3.1-3.6-3.9-5.2L5.4,9.8C4.6,8,4.4,6.6,5,5.9
	c0,0,0,0,0,0l1.8-1.8l0.1-0.1c0.3-0.2,0.6-0.2,0.9,0.1l2,2l0.1,0.1C10,6.5,10,6.9,9.8,7.1L8.3,8.6L8.2,8.6c0,0,0,0.1-0.1,0.1
	c-0.7,1.1,0.5,3.3,2.6,5.4c2.1,2.1,4.3,3.3,5.4,2.6c0.1,0,0.2-0.1,0.2-0.1l1.5-1.5l0.1-0.1c0.3-0.2,0.6-0.2,0.9,0.1l2,2l0.1,0.1
	C21.1,17.6,21.1,17.9,20.9,18.2z"/>
</svg>
