<svg width="19" height="19" viewBox="0 0 19 19" fill="none" xmlns="http://www.w3.org/2000/svg">
<g clip-path="url(#clip0_1439_95)">
<g clip-path="url(#clip1_1439_95)">
<path d="M16.3758 4.99828C16.3758 4.71025 16.0878 4.49422 15.8718 4.49422H12.9914V4.35021V4.20619C12.8474 2.33397 11.3352 0.893799 9.46303 0.893799C7.5188 0.893799 5.93461 2.40598 5.8626 4.35021V4.49422H2.91025C2.62222 4.49422 2.40619 4.71025 2.40619 4.99828L0.966025 16.8077C0.894017 17.0957 1.18205 17.3837 1.47008 17.3837H17.3119C17.672 17.3837 17.888 17.0957 17.816 16.8077L16.3758 4.99828ZM6.94273 4.42221V4.2782C7.08675 2.98204 8.16687 2.04593 9.46303 2.04593C10.8312 2.04593 11.9113 3.12606 11.9833 4.42221V4.56623H6.94273V4.42221ZM2.04615 16.3756L3.41431 5.64636H5.79059L5.64658 8.09465C5.28653 8.23866 5.07051 8.5987 5.07051 9.03076C5.07051 9.60682 5.57457 10.1109 6.15064 10.1109C6.7267 10.1109 7.23076 9.60682 7.23076 9.03076C7.23076 8.67071 7.01474 8.31067 6.7267 8.09465L6.87072 5.57435H11.9833L12.0553 8.09465C11.7673 8.31067 11.5513 8.67071 11.5513 9.03076C11.5513 9.60682 12.0553 10.1109 12.6314 10.1109C13.2075 10.1109 13.7115 9.60682 13.7115 9.03076C13.7115 8.5987 13.4955 8.23866 13.1355 8.09465L13.0634 5.64636H15.4397L16.7359 16.3756H2.04615Z" fill="#1E1E19"/>
</g>
</g>
<defs>
<clipPath id="clip0_1439_95">
<rect width="17.282" height="17.282" fill="white" transform="translate(0.75 0.75)"/>
</clipPath>
<clipPath id="clip1_1439_95">
<rect width="17.282" height="17.282" fill="white" transform="translate(0.75 0.75)"/>
</clipPath>
</defs>
</svg>
