<?xml version="1.0" encoding="UTF-8"?>
<svg width="24px" height="24px" viewBox="0 0 24 24" version="1.1" xmlns="http://www.w3.org/2000/svg" xmlns:xlink="http://www.w3.org/1999/xlink">
    <title>AD/icon/Email</title>
    <g id="Symbols" stroke="none" stroke-width="1" fill="none" fill-rule="evenodd">
        <g id="AD/icon/Email" fill="#1E1E19" fill-rule="nonzero">
            <g id="Outlined" transform="translate(1.400000, 4.400000)">
                <path d="M18.938875,0 L2.261125,0 C1.01233474,0 0,1.01236105 0,2.261125 L0,12.168875 C0,13.4176833 1.01231665,14.43 2.261125,14.43 L18.938875,14.43 C20.1876389,14.43 21.2,13.4176653 21.2,12.168875 L21.2,2.261125 C21.2,1.01237915 20.1876208,0 18.938875,0 Z M2.261125,1.2 L18.938875,1.2 C19.5248792,1.2 20,1.67512085 20,2.261125 L20,12.168875 C20,12.7549166 19.5249042,13.23 18.938875,13.23 L2.261125,13.23 C1.67505835,13.23 1.2,12.7549417 1.2,12.168875 L1.2,2.261125 C1.2,1.67509577 1.67508343,1.2 2.261125,1.2 Z" id="Stroke-1"></path>
                <path d="M19.6258143,0.529538858 C19.8806792,0.317759383 20.2589692,0.352686985 20.4707486,0.607551841 C20.6589971,0.834098379 20.6523164,1.158166 20.4695081,1.37612365 L20.3927357,1.45248614 L11.750021,8.63413369 C11.1473566,9.13485665 10.2284665,9.16823818 9.58369537,8.73426106 L9.44994098,8.63411251 L0.807190981,1.45248751 C0.552325373,1.24070894 0.517396426,0.862419089 0.729174994,0.607553481 C0.917422611,0.381006274 1.2372347,0.328236182 1.48498026,0.468045231 L1.57410902,0.529537494 L10.216867,7.71116913 C10.3928295,7.85738889 10.6935306,7.87566636 10.9007018,7.76599801 L10.9831268,7.71116386 L19.6258143,0.529538858 Z" id="Stroke-3"></path>
                <path d="M8.62682898,6.99612932 C8.8922581,6.79775083 9.26824845,6.85210611 9.46662693,7.11753523 C9.64516757,7.35642144 9.61899386,7.68486224 9.41847588,7.89277946 L9.34522102,7.95733318 L1.46753352,13.8450207 C1.2021044,14.0433992 0.82611405,13.9890439 0.627735566,13.7236148 C0.44919493,13.4847286 0.475368643,13.1562878 0.675886619,12.9483705 L0.74914148,12.8838168 L8.62682898,6.99612932 Z" id="Stroke-5"></path>
                <path d="M11.7333529,7.11754331 C11.9118927,6.87865642 12.2342987,6.8107388 12.4904928,6.94416132 L12.5731504,6.9961342 L20.4509004,12.8838217 C20.7163303,13.0821992 20.770687,13.4581893 20.5723096,13.7236192 C20.3937698,13.9625061 20.0713638,14.0304237 19.8151697,13.8970012 L19.7325121,13.8450283 L11.8547621,7.9573408 C11.5893322,7.75896333 11.5349755,7.38297318 11.7333529,7.11754331 Z" id="Stroke-7"></path>
            </g>
        </g>
    </g>
</svg>