<?xml version="1.0" encoding="UTF-8"?>
<svg width="24px" height="24px" viewBox="0 0 24 24" version="1.1" xmlns="http://www.w3.org/2000/svg" xmlns:xlink="http://www.w3.org/1999/xlink">
    <title>AD/icon/Locator</title>
    <g id="Symbols" stroke="none" stroke-width="1" fill="none" fill-rule="evenodd">
        <g id="AD/icon/Locator" fill="#1E1E19" fill-rule="nonzero">
            <g id="Outlined" transform="translate(3.816966, 1.817448)">
                <path d="M7.94137931,2.22044605e-16 C3.55348915,2.22044605e-16 0,3.596736 0,8.02965517 C0,10.0438876 1.41073243,12.8265742 3.55567377,15.8761839 L4.0262954,16.5335745 L4.51791353,17.1980396 L5.02904889,17.8684825 C5.11578237,17.9806602 5.20326744,18.0930413 5.29147326,18.2056029 L5.82911081,18.8829564 C5.92007641,18.9961488 6.01170114,19.109476 6.10395418,19.2229152 L6.66476554,19.9047118 C6.75940853,20.0185076 6.8546182,20.1323697 6.95036372,20.2462753 C7.46949036,20.8653495 8.41246556,20.8653495 8.93298039,20.2463992 L9.50118831,19.5629043 L10.0549659,18.8816969 C10.1459778,18.7684132 10.2363272,18.6552701 10.3259833,18.5422902 L10.8553555,17.866549 C10.9421159,17.7543121 11.0281217,17.6422835 11.1133423,17.5304859 L11.6149973,16.8626528 C11.860868,16.530303 12.0991194,16.200439 12.3289236,15.8736712 L12.7770239,15.2244448 C14.6678595,12.4305872 15.8827586,9.89985937 15.8827586,8.02965517 C15.8827586,3.59650507 12.3297314,2.22044605e-16 7.94137931,2.22044605e-16 Z M7.94137931,1.4 C11.5526955,1.4 14.4827586,4.3659178 14.4827586,8.02965517 L14.4774978,8.21307484 C14.4001086,9.59295342 13.4743052,11.5550376 12.0584871,13.7516253 L11.6409435,14.3853024 C11.282395,14.9181837 10.898003,15.4624816 10.4926047,16.0135029 L9.99635355,16.6776555 C9.91206773,16.7887854 9.82701906,16.9001091 9.74124624,17.0115891 L9.21822919,17.6820445 L8.67969023,18.3544492 L8.12748696,19.0270008 L7.941,19.249 L7.49315953,18.709188 C7.40582369,18.6029254 7.31896058,18.4966276 7.2326034,18.3903269 L6.72079669,17.7527452 C6.63659587,17.6465617 6.55296733,17.5404397 6.46994423,17.4344117 L5.97933643,16.7996272 C5.89886783,16.6941036 5.81907102,16.5887382 5.7399792,16.4835635 L5.27415342,15.855061 L4.8268396,15.2326824 C4.68099727,15.0264155 4.53850568,14.8214274 4.39963025,14.6179762 L3.99411785,14.0124913 C3.86274015,13.8123719 3.73524403,13.6140475 3.6118949,13.4177763 L3.25455391,12.8353799 C2.1066566,10.9163104 1.4,9.22836317 1.4,8.02965517 C1.4,4.36616907 4.33050409,1.4 7.94137931,1.4 Z" id="Stroke-1"></path>
                <path d="M7.94124138,4.13462069 C6.04078615,4.13462069 4.50331034,5.6908201 4.50331034,7.60634483 C4.50331034,9.52194793 6.04086152,11.0787586 7.94124138,11.0787586 C9.84265572,11.0787586 11.3798621,9.52229708 11.3798621,7.60634483 C11.3798621,5.69047108 9.84273109,4.13462069 7.94124138,4.13462069 Z M7.94124138,5.53462069 C9.06571366,5.53462069 9.97986207,6.45990173 9.97986207,7.60634483 C9.97986207,8.75297266 9.06552913,9.67875862 7.94124138,9.67875862 C6.81798811,9.67875862 5.90331034,8.75262352 5.90331034,7.60634483 C5.90331034,6.46025076 6.81780358,5.53462069 7.94124138,5.53462069 Z" id="Stroke-2"></path>
            </g>
        </g>
    </g>
</svg>