<svg width="18" height="19" viewBox="0 0 18 19" fill="none" xmlns="http://www.w3.org/2000/svg">
<g clip-path="url(#clip0_1439_84)">
<g clip-path="url(#clip1_1439_84)">
<path d="M17.4948 16.9519L13.3903 12.7754C14.4704 11.4793 15.1905 9.8951 15.1905 8.09489C15.1185 4.13442 11.9501 0.894043 7.91764 0.894043C3.88517 0.894043 0.716797 4.13442 0.716797 8.09489C0.716797 12.0554 3.95718 15.2957 7.91764 15.2957C9.64585 15.2957 11.302 14.6477 12.5982 13.5675L16.7027 17.744C16.9187 17.9601 17.2787 17.9601 17.4948 17.744C17.7108 17.6 17.7108 17.24 17.4948 16.9519ZM1.79692 8.09489C1.79692 4.7825 4.46124 2.04618 7.84563 2.04618C11.23 2.04618 13.8943 4.71049 13.8943 8.09489C13.8943 11.4793 11.23 14.1436 7.84563 14.1436C4.46124 14.1436 1.79692 11.4793 1.79692 8.09489Z" fill="#1E1E19"/>
</g>
</g>
<defs>
<clipPath id="clip0_1439_84">
<rect width="17.282" height="17.282" fill="white" transform="translate(0.5 0.75)"/>
</clipPath>
<clipPath id="clip1_1439_84">
<rect width="17.282" height="17.282" fill="white" transform="translate(0.5 0.75)"/>
</clipPath>
</defs>
</svg>
