<svg width="19" height="19" viewBox="0 0 19 19" fill="none" xmlns="http://www.w3.org/2000/svg">
<g clip-path="url(#clip0_1439_87)">
<g clip-path="url(#clip1_1439_87)">
<path d="M17.0952 17.0961C15.367 13.3517 12.7747 11.4075 9.39031 11.4075C6.07792 11.4075 3.48562 13.2797 1.6854 17.0241C1.54139 17.3122 1.6854 17.6002 1.97344 17.7442C2.26147 17.8882 2.54951 17.7442 2.69352 17.4562C4.27771 14.1438 6.50997 12.4876 9.39031 12.4876C12.2706 12.4876 14.5029 14.1438 16.0871 17.6002C16.2311 17.8882 16.5191 17.9602 16.8072 17.8882C17.0952 17.6722 17.2392 17.3842 17.0952 17.0961Z" fill="#1E1E19"/>
<path d="M9.75138 9.96711C12.2717 9.96711 14.2159 7.95087 14.2159 5.50258C14.2159 3.0543 12.2717 0.894043 9.75138 0.894043C7.23108 0.894043 5.21484 2.91028 5.21484 5.43058C5.21484 7.95087 7.23108 9.96711 9.75138 9.96711ZM9.75138 2.04618C11.6236 2.04618 13.2078 3.55836 13.2078 5.50258C13.2078 7.44681 11.6956 8.95899 9.75138 8.95899C7.80715 8.95899 6.36698 7.3028 6.36698 5.43058C6.36698 3.55836 7.87916 2.04618 9.75138 2.04618Z" fill="#1E1E19"/>
</g>
</g>
<defs>
<clipPath id="clip0_1439_87">
<rect width="17.282" height="17.282" fill="white" transform="translate(0.75 0.75)"/>
</clipPath>
<clipPath id="clip1_1439_87">
<rect width="17.282" height="17.282" fill="white" transform="translate(0.75 0.75)"/>
</clipPath>
</defs>
</svg>
