<svg width="19" height="19" viewBox="0 0 19 19" fill="none" xmlns="http://www.w3.org/2000/svg">
<g clip-path="url(#clip0_1439_92)">
<g clip-path="url(#clip1_1439_92)">
<path d="M16.3036 2.40627C14.5754 1.03811 12.4152 1.18213 10.615 2.40627C10.1829 2.69431 9.75086 3.12636 9.39082 3.63042C9.03078 3.12636 8.59873 2.69431 8.16668 2.40627C6.36646 1.18213 4.20621 0.966103 2.47801 2.40627C0.605787 3.91845 0.389761 6.72678 1.75792 9.03105C1.82993 9.10306 1.82993 9.17507 1.90194 9.24708L2.04596 9.4631L2.18997 9.67913C2.18997 9.75113 2.26198 9.75113 2.26198 9.82314L2.406 10.1112L2.62202 10.3992L2.91006 10.6872L3.19809 10.9753L3.48613 11.3353L3.91818 11.8394L4.27822 12.1994L4.85429 12.7755L5.21433 13.2075L5.64638 13.6396L6.29446 14.2877L6.72651 14.7197L7.23057 15.2238L8.02266 16.0159L8.81475 16.808C9.03078 17.024 9.31881 17.024 9.53484 16.808C9.53484 16.808 9.60685 16.808 9.60685 16.736C9.89488 16.5199 10.1109 16.2319 10.3989 16.0159L11.119 15.3678L11.8391 14.7197C11.9831 14.6477 12.0551 14.5037 12.1992 14.4317L12.8472 13.8556L13.4953 13.2075L14.1434 12.5595L14.5754 12.1274L14.9355 11.7674L15.2955 11.4073L15.5835 11.0473L15.8716 10.6872C15.9436 10.6152 15.9436 10.6152 16.0156 10.5432L16.3036 10.2552C16.3756 10.1832 16.3756 10.1832 16.4476 10.1112L16.6637 9.82314L16.8797 9.53511C17.0237 9.39109 17.0957 9.24708 17.1677 9.10306C18.3919 6.72678 18.1759 3.91845 16.3036 2.40627ZM9.03078 6.65477C9.10279 6.43875 9.1748 6.15071 9.31881 5.86268L9.39082 5.71866L9.46283 5.86268C9.60685 6.15071 9.67885 6.43875 9.75086 6.65477C9.89488 7.15883 9.67885 7.37486 9.39082 7.37486C9.10279 7.37486 8.88676 7.08682 9.03078 6.65477ZM16.0876 8.52699C16.0876 8.599 16.0156 8.67101 16.0156 8.67101L15.8716 8.88703L15.7996 8.95904L15.6556 9.17507L15.5115 9.39109L15.2955 9.60712L15.0795 9.89515L14.8635 10.1832L14.5754 10.4712L14.1434 10.9033L13.8553 11.1913L13.3513 11.6954L12.7752 12.2714L12.4152 12.6315L11.7671 13.2075L10.903 14.0716L9.96689 14.9357L9.2468 15.5838L8.59873 14.9357L7.66262 13.9996L7.01454 13.3516L6.43847 12.7035L5.7904 12.1994L5.28634 11.6234L4.92629 11.2633L4.49424 10.8313L4.20621 10.5432L3.91818 10.2552L3.70215 9.96716L3.41412 9.60712L3.19809 9.39109L3.05407 9.17507L2.91006 8.88703L2.76604 8.67101C2.69403 8.599 2.69403 8.52699 2.62202 8.52699C1.5419 6.65477 1.68591 4.42251 3.12608 3.27037C4.42224 2.19025 6.07843 2.33426 7.5186 3.34238C7.95065 3.63042 8.3827 4.06247 8.74274 4.63853C8.3827 5.28661 8.09467 5.86268 7.95065 6.36674C7.66262 7.44686 8.31069 8.45498 9.39082 8.52699C10.4709 8.52699 11.119 7.51887 10.831 6.43875V6.36674V6.29473C10.831 6.29473 10.831 6.29473 10.831 6.22272C10.687 5.71866 10.3989 5.2146 10.1109 4.63853C10.3989 4.06247 10.831 3.63042 11.191 3.34238C12.6312 2.33426 14.2874 2.19025 15.5835 3.27037C17.0957 4.42251 17.2397 6.65477 16.0876 8.52699Z" fill="#1E1E19"/>
</g>
</g>
<defs>
<clipPath id="clip0_1439_92">
<rect width="17.282" height="17.282" fill="white" transform="translate(0.75 0.75)"/>
</clipPath>
<clipPath id="clip1_1439_92">
<rect width="17.282" height="17.282" fill="white" transform="translate(0.75 0.75)"/>
</clipPath>
</defs>
</svg>
